<?xml version="1.0" encoding="UTF-8"?>
<svg id="Layer_2" data-name="Layer 2" xmlns="http://www.w3.org/2000/svg" viewBox="0 0 522.58 170.55">
  <defs>
    <style>
      .cls-1 {
        fill: #293d3b;
      }
    </style>
  </defs>
  <g id="Layer_1-2" data-name="Layer 1">
    <g>
      <path class="cls-1" d="M8.09,61.07H.05V.92H23c12.73,0,20.86,5.95,20.86,17.42s-8.13,17.51-20.86,17.51H8.09v25.21ZM22.58,28.9c8.54,0,13.32-3.77,13.32-10.55s-4.77-10.47-13.32-10.47H8.09V28.9h14.49Z"/>
      <path class="cls-1" d="M82.56,0c15.75,0,27.22,12.65,27.22,30.99s-11.48,30.99-27.22,30.99-27.31-12.65-27.31-30.99S66.81,0,82.56,0Zm0,7.12c-11.31,0-19.27,9.63-19.27,23.87s7.96,23.87,19.27,23.87,19.27-9.63,19.27-23.87-7.96-23.87-19.27-23.87Z"/>
      <path class="cls-1" d="M125.95,.92h8.04V54.03h29.99v7.04h-38.03V.92Z"/>
      <path class="cls-1" d="M205.69,.92l23.2,60.14h-8.13l-6.11-15.83h-26.97l-6.03,15.83h-8.04L196.82,.92h8.88Zm-15.33,37.28h21.61l-10.89-28.23-10.72,28.23Z"/>
      <path class="cls-1" d="M251.26,61.07h-8.04V.92h22.95c12.73,0,20.86,5.95,20.86,17.42,0,9.63-5.86,15.5-15.41,17.09l16.67,25.63h-9.21l-16.17-25.21h-11.64v25.21Zm14.49-32.17c8.54,0,13.32-3.77,13.32-10.55s-4.77-10.47-13.32-10.47h-14.49V28.9h14.49Z"/>
      <path class="cls-1" d="M311.91,61.07h-8.04V.92h8.04V61.07Z"/>
      <path class="cls-1" d="M331.51,43.64c3.77,7.2,10.55,11.39,18.34,11.39s13.82-3.85,13.82-10.72c0-7.29-6.95-8.54-16.08-10.72-9.47-2.26-18.85-4.86-18.85-16.17,0-10.55,9.13-17.42,20.52-17.42,10.47,0,18.01,5.03,21.61,11.81l-6.11,4.86c-3.1-5.78-7.87-9.72-15.66-9.72-7.29,0-12.57,4.02-12.57,9.8,0,6.37,5.61,7.71,14.07,9.72,9.97,2.35,20.94,4.44,20.94,17.17,0,11.22-9.97,18.34-21.86,18.34-10.39,0-20.36-5.19-24.46-13.32l6.28-5.03Z"/>
    </g>
    <path class="cls-1" d="M163.98,108.56v7.04h-31.33v18.51h26.55v7.04h-26.55v20.52h31.33v7.04h-39.29v-60.14h39.29Z"/>
    <path class="cls-1" d="M188.94,168.71h-8.04v-60.14h8.04v60.14Z"/>
    <path class="cls-1" d="M247.83,108.56v7.04h-31.33v18.51h26.55v7.04h-26.55v20.52h31.33v7.04h-39.29v-60.14h39.29Z"/>
    <path class="cls-1" d="M312.25,168.71h-6.95l-32.84-48.42v48.42h-7.71v-60.14h8.46l31.25,46.49v-46.49h7.79v60.14Z"/>
    <path class="cls-1" d="M331.85,108.56h19.1c18.26,0,29.82,11.73,29.82,30.07s-11.56,30.07-29.82,30.07h-19.1v-60.14Zm19.1,53.19c13.65,0,21.95-9.13,21.95-23.12s-8.29-23.12-22.03-23.12h-11.14v46.24h11.22Z"/>
    <path class="cls-1" d="M420.97,108.56c15.75,0,27.22,12.65,27.22,30.99s-11.48,30.99-27.22,30.99-27.31-12.65-27.31-30.99,11.56-30.99,27.31-30.99Zm0,7.12c-11.31,0-19.27,9.63-19.27,23.87s7.96,23.87,19.27,23.87,19.27-9.63,19.27-23.87-7.96-23.87-19.27-23.87Z"/>
    <path class="cls-1" d="M490.25,168.71l-18.34-49.51v49.51h-7.54v-60.14h10.97l18.26,49.42,18.34-49.42h10.64v60.14h-7.46v-49.51l-18.43,49.51h-6.45Z"/>
    <polygon class="cls-1" points=".12 136.26 0 170.55 34.28 170.41 34.26 162.52 7.9 162.64 8 136.29 .12 136.26"/>
    <polygon class="cls-1" points="522.46 34.28 522.58 0 488.3 .14 488.32 8.03 514.68 7.91 514.58 34.26 522.46 34.28"/>
  </g>
</svg>